HIERARCHY
ROOT Hip
{
	OFFSET 0 1.131 0.0052
	CHANNELS 6 Xposition Yposition Zposition Xrotation Yrotation Zrotation
	JOINT Abdomen
	{
		OFFSET 0 -0.047353 -0.05
		CHANNELS 3 Xrotation Zrotation Yrotation
		JOINT Chest
		{
			OFFSET 0 0.132153 0.007439
			CHANNELS 3 Xrotation Zrotation Yrotation
			JOINT Neck
			{
				OFFSET 0 0.3078 0.006161
				CHANNELS 3 Xrotation Zrotation Yrotation
				JOINT Head_comp
				{
					OFFSET 0 0.0884 0.013
					CHANNELS 3 Xrotation Yrotation Zrotation
					End Site
					{
						OFFSET -0 0.156 0.0624
					}
				}
			}
			JOINT Left_Collar
			{
				OFFSET 0.02282 0.250342 0.017193
				CHANNELS 2 Yrotation Zrotation
				JOINT Left_Shoulder
				{
					OFFSET 0.15421 0 0
					CHANNELS 3 Xrotation Yrotation Zrotation
					JOINT Left_Forearm
					{
						OFFSET 0.265212 0 0
						CHANNELS 2 Yrotation Xrotation
						JOINT Left_Hand
						{
							OFFSET 0.27571 0 0
							CHANNELS 2 Zrotation Yrotation
							JOINT L1ProxPhalanx
							{
								OFFSET 0.014142 0.001733 0.014142
								CHANNELS 3 Yrotation Zrotation Xrotation
								JOINT L1MidPhalanx
								{
									OFFSET 0.04 0 0
									CHANNELS 1 Zrotation
									JOINT L1DistPhalanx
									{
										OFFSET 0.035 0 0
										CHANNELS 1 Zrotation
										End Site
										{
											OFFSET 0.029 -0 -0
										}
									}
								}
							}
							JOINT L2ProxPhalanx
							{
								OFFSET 0.0821037 0.001578 0.0219996
								CHANNELS 2 Yrotation Zrotation
								JOINT L2MidPhalanx
								{
									OFFSET 0.04 0 0
									CHANNELS 1 Zrotation
									JOINT L2DistPhalanx
									{
										OFFSET 0.028 0 0
										CHANNELS 1 Zrotation
										End Site
										{
											OFFSET 0.02 -0 -0
										}
									}
								}
							}
							JOINT L3ProxPhalanx
							{
								OFFSET 0.083 0 0
								CHANNELS 2 Yrotation Zrotation
								JOINT L3MidPhalanx
								{
									OFFSET 0.053 0 0
									CHANNELS 1 Zrotation
									JOINT L3DistPhalanx
									{
										OFFSET 0.03 0 0
										CHANNELS 1 Zrotation
										End Site
										{
											OFFSET 0.023 -0 -0
										}
									}
								}
							}
							JOINT L4ProxPhalanx
							{
								OFFSET 0.077274 -0.000761 -0.0207055
								CHANNELS 2 Yrotation Zrotation
								JOINT L4MidPhalanx
								{
									OFFSET 0.05 0 0
									CHANNELS 1 Zrotation
									JOINT L4DistPhalanx
									{
										OFFSET 0.03 0 0
										CHANNELS 1 Zrotation
										End Site
										{
											OFFSET 0.023 -0 -0
										}
									}
								}
							}
							JOINT L5ProxPhalanx
							{
								OFFSET 0.0675499 -0.001644 -0.039
								CHANNELS 2 Yrotation Zrotation
								JOINT L5MidPhalanx
								{
									OFFSET 0.04 0 0
									CHANNELS 1 Zrotation
									JOINT L5DistPhalanx
									{
										OFFSET 0.021 0 0
										CHANNELS 1 Zrotation
										End Site
										{
											OFFSET 0.022 -0 -0
										}
									}
								}
							}
						}
					}
				}
			}
			JOINT Right_Collar
			{
				OFFSET -0.02282 0.250342 0.017193
				CHANNELS 2 Yrotation Zrotation
				JOINT Right_Shoulder
				{
					OFFSET -0.15421 0 0
					CHANNELS 3 Xrotation Yrotation Zrotation
					JOINT Right_Forearm
					{
						OFFSET -0.265212 0 0
						CHANNELS 2 Yrotation Xrotation
						JOINT Right_Hand
						{
							OFFSET -0.27571 3e-006 0
							CHANNELS 2 Zrotation Yrotation
							JOINT R1ProxPhalanx
							{
								OFFSET -0.014142 0.001733 0.014142
								CHANNELS 3 Yrotation Zrotation Xrotation
								JOINT R1MidPhalanx
								{
									OFFSET -0.04 0 0
									CHANNELS 1 Zrotation
									JOINT R1DistPhalanx
									{
										OFFSET -0.035 0 0
										CHANNELS 1 Zrotation
										End Site
										{
											OFFSET -0.029 -0 -0
										}
									}
								}
							}
							JOINT R2ProxPhalanx
							{
								OFFSET -0.0821037 0.001578 0.0219996
								CHANNELS 2 Yrotation Zrotation
								JOINT R2MidPhalanx
								{
									OFFSET -0.04 0 0
									CHANNELS 1 Zrotation
									JOINT R2DistPhalanx
									{
										OFFSET -0.028 0 0
										CHANNELS 1 Zrotation
										End Site
										{
											OFFSET -0.02 -0 -0
										}
									}
								}
							}
							JOINT R3ProxPhalanx
							{
								OFFSET -0.083 0 0
								CHANNELS 2 Yrotation Zrotation
								JOINT R3MidPhalanx
								{
									OFFSET -0.053 0 0
									CHANNELS 1 Zrotation
									JOINT R3DistPhalanx
									{
										OFFSET -0.03 0 0
										CHANNELS 1 Zrotation
										End Site
										{
											OFFSET -0.023 -0 -0
										}
									}
								}
							}
							JOINT R4ProxPhalanx
							{
								OFFSET -0.077274 -0.000761 -0.0207055
								CHANNELS 2 Yrotation Zrotation
								JOINT R4MidPhalanx
								{
									OFFSET -0.05 0 0
									CHANNELS 1 Zrotation
									JOINT R4DistPhalanx
									{
										OFFSET -0.03 0 0
										CHANNELS 1 Zrotation
										End Site
										{
											OFFSET -0.023 -0 -0
										}
									}
								}
							}
							JOINT R5ProxPhalanx
							{
								OFFSET -0.0675499 -0.001644 -0.039
								CHANNELS 2 Yrotation Zrotation
								JOINT R5MidPhalanx
								{
									OFFSET -0.04 0 0
									CHANNELS 1 Zrotation
									JOINT R5DistPhalanx
									{
										OFFSET -0.021 0 0
										CHANNELS 1 Zrotation
										End Site
										{
											OFFSET -0.022 -0 -0
										}
									}
								}
							}
						}
					}
				}
			}
		}
	}
	JOINT Left_Thigh
	{
		OFFSET 0.1118 -0.1612 -0.0442
		CHANNELS 3 Xrotation Zrotation Yrotation
		JOINT Left_Shin
		{
			OFFSET 0 -0.477856 0
			CHANNELS 1 Xrotation
			JOINT Left_Foot
			{
				OFFSET 0 -0.431952 0
				CHANNELS 2 Xrotation Zrotation
				JOINT Left_Toe
				{
					OFFSET 0 -0.0442 0.119
					CHANNELS 1 Xrotation
					End Site
					{
						OFFSET -0 -0 0.07
					}
				}
			}
		}
	}
	JOINT Right_Thigh
	{
		OFFSET -0.1118 -0.1612 -0.0442
		CHANNELS 3 Xrotation Zrotation Yrotation
		JOINT Right_Shin
		{
			OFFSET 0 -0.477856 0
			CHANNELS 1 Xrotation
			JOINT Right_Foot
			{
				OFFSET 0 -0.431952 0
				CHANNELS 2 Xrotation Zrotation
				JOINT Right_Toe
				{
					OFFSET 0 -0.0442 0.119
					CHANNELS 1 Xrotation
					End Site
					{
						OFFSET -0 -0 0.07
					}
				}
			}
		}
	}
}
MOTION
Frames: 6
Frame Time: 0.009975
-0.0959186 -0.0601398 0.0430875 1.75075e-012 2.34811e-008 -5.11004e-006 0 -0 0 0 -0 0 0 -0 0 -0.712478 0.275843 -8.67337e-012 7.7838 -23.0157 5.91363 -10.8941 -24.1923 -115.109 -2.84571 10.7112 -16.5231 -40.5316 -43.5896 103.283 -7.10789 -4.81548 2.69559 -7.40342 -2.98992 -6.72733 5.89092 0.508958 -5.4973 -5.3917 11.1257 1.19015 -12.1062 -9.35422 19.4153 3.33565 -41.2194 -1.46018 10.6873 8.66762 -33.5353 18.7749 22.321 26.1103 9.04563 -0.941878 -3.25768 48.1453 49.2516 87.6081 20.3586 27.1584 -6.97748 31.472 24.3139 38.5992 -4.97063 68.3012 63.9089 68.853 -4.34575 71.3335 89.3881 19.5154 -9.34996 63.0333 116.346 -3.71679 0.246046 -1.00019 -0.00429478 0.0240216 -0.270031 1.0002 0 0.257453 -1.00019 -0.00449389 1.21346e-006 -0.257415 1.0002 0 
-0.095785 -0.0601415 0.0429397 1.1565e-013 2.24371e-008 -5.11006e-006 0 -0 0 0 -0 0 0 -0 0 -0.712472 0.275421 -4.36543e-013 7.7838 -23.0157 5.91363 -10.8941 -24.1923 -115.109 -2.84571 10.7112 -16.5231 -40.5316 -43.5896 103.283 -7.10789 -4.81548 2.69559 -7.40342 -2.98992 -6.72733 5.89092 0.508958 -5.4973 -5.3917 11.1257 1.19015 -12.1062 -9.35422 19.4153 3.33565 -41.2194 -1.46018 11.3589 7.846 -33.7052 18.477 21.8494 24.2586 8.64307 -0.597509 -3.59062 33.1571 58.4858 95.5951 13.6005 33.8389 -11.0641 27.7515 12.0841 18.0043 -8.45348 67.02 62.7022 66.3855 -7.84746 68.7514 91.7213 25.1364 -24.0363 51.9231 121.226 -0.320775 0.23674 -1.0086 -0.00416713 0.0240216 -0.260725 1.00862 0 0.248147 -1.0086 -0.00436791 0 -0.248108 1.00862 0 
-0.0956527 -0.0601434 0.0428409 -1.04036e-012 2.18202e-008 -5.11008e-006 0 -0 0 0 -0 0 0 -0 0 -0.712471 0.274997 -1.30209e-012 7.7838 -23.0157 5.91363 -10.8941 -24.1923 -115.109 -2.84571 10.7112 -16.5231 -40.5316 -43.5896 103.283 -7.10789 -4.81548 2.69559 -7.40342 -2.98992 -6.72733 5.89092 0.508958 -5.4973 -5.3917 11.1257 1.19015 -12.1062 -9.35422 19.4153 3.33565 -41.2194 -1.46018 11.8929 7.08494 -33.9142 18.2203 21.4089 22.6057 8.26795 -0.275999 -3.95741 28.1922 60.4085 108.814 15.6268 22.9782 -10.1843 28.6875 11.8439 17.1478 -7.96963 65.5596 68.5194 54.1172 -7.47385 67.6083 95.2515 19.8629 -24.0444 47.0576 127.711 0.0146709 0.230513 -1.01694 -0.00409111 0.0240216 -0.254499 1.01695 0 0.24192 -1.01694 -0.00429355 1.18931e-006 -0.241883 1.01695 0 
-0.0955421 -0.060145 0.0427521 -3.73476e-012 2.13252e-008 -5.11009e-006 0 -0 0 0 -0 0 0 -0 0 -0.71247 0.274641 -7.12141e-013 7.7838 -23.0157 5.91363 -10.8941 -24.1923 -115.109 -2.84571 10.7112 -16.5231 -40.5316 -43.5896 103.283 -7.10789 -4.81548 2.69559 -7.40342 -2.98992 -6.72733 5.89092 0.508958 -5.4973 -5.3917 11.1257 1.19015 -12.1062 -9.35422 19.4153 3.33565 -41.2194 -1.46018 12.3958 6.38246 -34.1498 17.9173 21.009 21.1528 8.14394 -0.133998 -4.31971 37.0534 58.2952 95.058 13.7369 30.9908 -9.89204 30.5008 12.1833 24.0569 -6.24644 69.5034 67.1781 57.4507 -5.77752 70.8143 93.0494 22.6171 -16.5581 57.3155 125.774 0.821964 0.224923 -1.0239 -0.00401923 0.0240216 -0.248909 1.02392 0 0.23633 -1.0239 -0.00422306 2.41484e-006 -0.236294 1.02391 0 
-0.0954479 -0.0601464 0.0426796 -2.58254e-012 2.08206e-008 -5.1101e-006 0 -0 0 0 -0 0 0 -0 0 -0.712469 0.274339 -4.12086e-013 7.7838 -23.0157 5.91363 -10.8941 -24.1923 -115.109 -2.84571 10.7112 -16.5231 -40.5316 -43.5896 103.283 -7.10789 -4.81548 2.69559 -7.40342 -2.98992 -6.72733 5.89092 0.508958 -5.4973 -5.3917 11.1257 1.19015 -12.1062 -9.35422 19.4153 3.33565 -41.2194 -1.46018 12.8585 5.75214 -34.2638 17.6381 20.5735 19.8881 8.16831 -0.11079 -4.60541 48.2586 59.6168 90.1741 13.9319 29.8107 -8.73959 47.1091 22.6962 36.4025 -4.99999 74.547 64.1498 60.9272 -5.83257 74.3825 86.3895 24.2282 -18.4581 58.7444 125.47 5.67497 0.220358 -1.02983 -0.00396051 0.0240216 -0.244344 1.02985 0 0.231765 -1.02983 -0.00416552 1.70755e-006 -0.23173 1.02985 0 
-0.0953551 -0.0601479 0.0426444 3.00737e-012 2.05134e-008 -5.11011e-006 0 -0 0 0 -0 0 0 -0 0 -0.712472 0.274034 5.1087e-012 7.7838 -23.0157 5.91363 -10.8941 -24.1923 -115.109 -2.84571 10.7112 -16.5231 -40.5316 -43.5896 103.283 -7.10789 -4.81548 2.69559 -7.40342 -2.98992 -6.72733 5.89092 0.508958 -5.4973 -5.3917 11.1257 1.19015 -12.1062 -9.35422 19.4153 3.33565 -41.2194 -1.46018 13.204 5.15399 -34.3104 17.4465 20.1421 18.7643 8.20024 0.00518598 -4.76808 50.5457 52.7103 93.8112 15.428 20.1537 -5.15674 36.7619 26.3545 28.5772 -4.41414 64.3472 60.7967 56.1254 -4.55366 65.4823 77.4268 21.2911 -12.498 55.3481 117.915 2.11851 0.21814 -1.03568 -0.0039429 0.0240216 -0.242126 1.03569 0 0.229546 -1.03568 -0.00414907 1.24364e-006 -0.22951 1.03569 0 
